<?xml version="1.0" encoding="utf-8"?>
<!-- Svg Vector Icons : http://www.onlinewebfonts.com/icon -->
<!DOCTYPE svg PUBLIC "-//W3C//DTD SVG 1.1//EN" "http://www.w3.org/Graphics/SVG/1.1/DTD/svg11.dtd">
<svg version="1.1" xmlns="http://www.w3.org/2000/svg" xmlns:xlink="http://www.w3.org/1999/xlink" x="0px" y="0px" viewBox="0 0 1000 1000" enable-background="new 0 0 1000 1000" xml:space="preserve">
<metadata> Svg Vector Icons : http://www.onlinewebfonts.com/icon </metadata>
<g><path d="M461.9,314.9L461.9,314.9C467.3,314.9,467.3,314.9,461.9,314.9c5.4-21.8,10.9-32.7,10.9-49V255c5.4-27.2,5.4-49,0-54.4c0,0,0,0,0-5.4l-5.4-5.4l0,0l0,0c0,0,0,5.4-5.4,5.4C451,227.8,451,265.9,461.9,314.9L461.9,314.9z M298.6,690.6c-10.9,5.4-21.8,10.9-27.2,16.3c-38.1,32.7-65.3,70.8-70.8,87.1l0,0l0,0l0,0C233.2,788.6,265.9,755.9,298.6,690.6C304,690.6,304,690.6,298.6,690.6C304,690.6,298.6,690.6,298.6,690.6z M799.4,608.9c-5.4-5.4-27.2-21.8-103.4-21.8c-5.4,0-5.4,0-10.9,0l0,0c0,0,0,0,0,5.4c38.1,16.3,76.2,27.2,103.4,27.2c5.4,0,5.4,0,10.9,0l0,0h5.4c0,0,0,0,0-5.4l0,0C804.9,614.3,799.4,614.3,799.4,608.9z M881.1,10H118.9C59,10,10,59,10,118.9v762.2C10,941,59,990,118.9,990h762.2C941,990,990,941,990,881.1V118.9C990,59,941,10,881.1,10z M821.2,652.4c-10.9,5.4-27.2,10.9-49,10.9c-43.6,0-108.9-10.9-163.3-38.1c-92.6,10.9-163.3,21.8-217.8,43.6c-5.4,0-5.4,0-10.9,5.4C314.9,788.6,260.4,843,216.9,843c-10.9,0-16.3,0-21.8-5.4l-27.2-16.3v-5.4c-5.4-10.9-5.4-16.3-5.4-27.2c5.4-27.2,38.1-76.2,103.4-114.3c10.9-5.4,27.2-16.3,49-27.2c16.3-27.2,32.7-59.9,54.4-98c27.2-54.4,43.6-108.9,59.9-157.9l0,0c-21.8-65.3-32.7-103.4-10.9-179.7c5.4-21.8,21.8-43.6,43.6-43.6h10.9c10.9,0,21.8,5.4,32.7,10.9c38.1,38.1,21.8,125.2,0,196c0,5.4,0,5.4,0,5.4c21.8,59.9,54.4,108.9,87.1,141.6c16.3,10.9,27.2,21.8,49,32.7c27.2,0,49-5.4,70.8-5.4c65.3,0,108.9,10.9,125.2,38.1c5.4,10.9,5.4,21.8,5.4,32.7C837.6,625.2,832.1,641.6,821.2,652.4z M467.3,440.1c-10.9,38.1-32.7,81.7-54.4,130.7c-10.9,21.8-21.8,38.1-32.7,59.9h5.4h5.4l0,0c70.8-27.2,136.1-43.6,179.7-49c-10.9-5.4-16.3-10.9-21.8-16.3C521.8,532.7,489.1,489.1,467.3,440.1z"/></g>
</svg>